<svg id="Camada_1" data-name="Camada 1" xmlns="http://www.w3.org/2000/svg" viewBox="0 0 1256.38 397.91"><defs><style>.cls-1{fill:#434142;}.cls-2{fill:#a4007e;}.cls-2,.cls-3{opacity:0.8;}.cls-3{fill:#699ed3;}</style></defs><title>logo-jms</title><path class="cls-1" d="M606.3,323.17q5.15-2.48,20.84-2.48H736.91V240.22H599.49q-42.51,0-69.54,18.37-21.42,14.55-25.84,44l-.6-7.1q-2.88-34.25-18.77-47.25t-40.65-13q-30.13,0-42.71,9.7t-19.6,35.69l-22.7,61.9-23.93-61.9q-6.61-26-19.19-35.69t-42.72-9.7q-24.35,0-40.44,13.41t-19,46.84l-5.27,61.76V184.92H119.41V423.45q0,13.21-8,17.54T79.8,445.32H54.62v82.12h53.24q47.87,0,74.28-26.41a88.85,88.85,0,0,0,16-21.58l-8.81,103.29h86.25l16.25-224.08s39.76,75.63,44.16,81.53,12,8.84,22.7,8.84,18.29-2.95,22.69-8.84,45.4-81.53,45.4-81.53l9.49,168.78H588.34q49.93,0,77.17-22.08t27.24-57.57q0-31.77-28.06-60a712.37,712.37,0,0,0-63.55-56.33A8.48,8.48,0,0,1,606.3,323.17ZM583.19,443.05q-6.41,2.26-26.62,2.27H516l-8.53-102q6.42,16.76,21.82,32.66,26.42,27.24,60.25,56.12Q589.58,440.78,583.19,443.05Z" transform="translate(-54.62 -184.83)"/><path class="cls-2" d="M1064.18,331.81c0-54.09-53.38-97.94-119.23-97.94-64.7,0-117.32,42.33-119.15,95.1l-.09,0,.09.08c0,.91-.09,1.82-.09,2.74,0,28,14.36,53.29,37.34,71.14l-4.6,26.8,25.88-13.61A138.71,138.71,0,0,0,945,429.75a144.94,144.94,0,0,0,17.44-1.06l2,1.06-.22-1.29C1020.88,420.91,1064.18,380.52,1064.18,331.81Z" transform="translate(-54.62 -184.83)"/><path class="cls-3" d="M980.6,282.77c0-54.09,53-97.94,118.39-97.94,64.23,0,116.48,42.33,118.29,95.11h.09l-.08.08c0,.91.08,1.82.08,2.74,0,28-14.25,53.29-37.07,71.15l4.56,26.79-25.69-13.6a137,137,0,0,1-60.18,13.6,145.18,145.18,0,0,1-17.33-1l-2,1,.22-1.28C1023.59,371.87,980.6,331.48,980.6,282.77Z" transform="translate(-54.62 -184.83)"/><path class="cls-1" d="M773.17,489.35h-4.73a18.22,18.22,0,0,0-12.41,4.7q-5.37,4.71-5.37,13.36T756,520.66a18.27,18.27,0,0,0,12.41,4.7h4.67v2.08H768a19.92,19.92,0,0,1-13.91-5.4q-5.88-5.38-5.88-14.63t5.88-14.75A20,20,0,0,1,768,487.27h5.2Z" transform="translate(-54.62 -184.83)"/><path class="cls-1" d="M836.49,507.41a20.11,20.11,0,0,1-6,14.63,19.63,19.63,0,0,1-14.57,6.09,19.31,19.31,0,0,1-14.4-6.09,20.22,20.22,0,0,1-5.92-14.63,20.43,20.43,0,0,1,5.89-14.75,19.28,19.28,0,0,1,14.43-6.09,19.63,19.63,0,0,1,14.57,6.09A20.27,20.27,0,0,1,836.49,507.41Zm-2.54,0a18.44,18.44,0,0,0-5.2-13.16,17,17,0,0,0-12.81-5.48,16.73,16.73,0,0,0-12.7,5.48,19.28,19.28,0,0,0,0,26.21,16.73,16.73,0,0,0,12.7,5.48,17,17,0,0,0,12.78-5.46A18.19,18.19,0,0,0,834,507.41Z" transform="translate(-54.62 -184.83)"/><path class="cls-1" d="M903.46,527.44h-2.39l-5-36.88q-.29-1.68-.81-1.68c-.38,0-.73.56-1,1.68l-9.63,33a16.24,16.24,0,0,1-1.45,3.66,2.27,2.27,0,0,1-2,.72,2.32,2.32,0,0,1-2-.69,15.46,15.46,0,0,1-1.45-3.69l-9.58-33c-.31-1.12-.65-1.68-1-1.68s-.61.56-.8,1.68l-5,36.88H859L864,490.73a8.61,8.61,0,0,1,.89-3.14,2.22,2.22,0,0,1,2.09-1,2.67,2.67,0,0,1,2.22.76,16.92,16.92,0,0,1,1.6,4.11l9.61,32.62a4.73,4.73,0,0,0,.45,1,.54.54,0,0,0,.45.28c.18,0,.33-.14.46-.42a7.13,7.13,0,0,0,.32-.88l9.66-32.62a15.91,15.91,0,0,1,1.57-4.08,2.71,2.71,0,0,1,2.26-.79,2.23,2.23,0,0,1,2.06,1,8.48,8.48,0,0,1,.91,3.12Z" transform="translate(-54.62 -184.83)"/><path class="cls-1" d="M955.68,514.34q0,6.46-3.72,10.13t-10.13,3.66c-4.24,0-7.59-1.22-10.08-3.66S928,518.65,928,514.34V487.27h2.37v27.82a10.36,10.36,0,0,0,3.09,7.93,13.28,13.28,0,0,0,16.62,0,10.25,10.25,0,0,0,3.14-7.93V487.27h2.43Z" transform="translate(-54.62 -184.83)"/><path class="cls-1" d="M1009.7,525.25c0,1.92-1,2.88-3,2.88a3.6,3.6,0,0,1-2.05-.6,5.07,5.07,0,0,1-1.59-2.17L987.14,491q-1-2.25-1.62-2.25c-.46,0-.69.34-.69,1v37.63h-2.37V489.81a3.85,3.85,0,0,1,.66-2.31,2.63,2.63,0,0,1,2.28-.93,3.61,3.61,0,0,1,2,.47,5,5,0,0,1,1.45,2l16.79,35.9q.4.81.93.81c.46,0,.69-.37.69-1.1v-38h2.42Z" transform="translate(-54.62 -184.83)"/><path class="cls-1" d="M1040.3,527.44h-2.43V487.27h2.43Z" transform="translate(-54.62 -184.83)"/><path class="cls-1" d="M1091.78,489.35h-4.73a18.24,18.24,0,0,0-12.41,4.7q-5.37,4.71-5.37,13.36t5.37,13.25a18.28,18.28,0,0,0,12.41,4.7h4.67v2.08h-5.13a19.89,19.89,0,0,1-13.91-5.4q-5.9-5.38-5.89-14.63t5.89-14.75a19.92,19.92,0,0,1,13.91-5.39h5.19Z" transform="translate(-54.62 -184.83)"/><path class="cls-1" d="M1143.67,527.44h-2.42V507.82H1120.7v-2h20.55v-6.07a10.55,10.55,0,0,0-3.09-8.05,13.31,13.31,0,0,0-16.65,0,10.5,10.5,0,0,0-3.12,8v27.71H1116v-27q0-6.53,3.73-10.19t10.07-3.67q6.35,0,10.1,3.7t3.75,10.16Z" transform="translate(-54.62 -184.83)"/><path class="cls-1" d="M1193.66,489.35h-4.74a18.25,18.25,0,0,0-12.41,4.7q-5.35,4.71-5.36,13.36t5.36,13.25a18.3,18.3,0,0,0,12.41,4.7h4.68v2.08h-5.14a19.9,19.9,0,0,1-13.91-5.4q-5.88-5.38-5.89-14.63t5.89-14.75a19.94,19.94,0,0,1,13.91-5.39h5.2Zm-9.87,41.38,2.94-3.52h1.79l-2.6,2.77.18.06a4.3,4.3,0,0,1,.57-.2,12.14,12.14,0,0,1,1.21-.26,4.63,4.63,0,0,1,2.92.95,2.84,2.84,0,0,1,1.24,2.34,2.94,2.94,0,0,1-1.7,2.82,8.74,8.74,0,0,1-4,.87,12.22,12.22,0,0,1-2.4-.23,12.35,12.35,0,0,1-2.11-.64l.64-1.27a8.77,8.77,0,0,0,3.75.93,5.41,5.41,0,0,0,2.63-.61,1.94,1.94,0,0,0,1.12-1.82,2.1,2.1,0,0,0-.72-1.47,2.85,2.85,0,0,0-2.11-.72c-.42.08-.85.16-1.29.26a4.51,4.51,0,0,0-1.19.43Z" transform="translate(-54.62 -184.83)"/><path class="cls-1" d="M1245.55,527.44h-2.43V507.82h-20.55v-2h20.55v-6.07a10.55,10.55,0,0,0-3.09-8.05,13.31,13.31,0,0,0-16.65,0,10.49,10.49,0,0,0-3.11,8v27.71h-2.37v-27q0-6.53,3.72-10.19t10.07-3.67q6.36,0,10.1,3.7t3.76,10.16Zm-20.44-43.52h-1.67a6.76,6.76,0,0,1,1.33-3.28,3.8,3.8,0,0,1,3.29-1.74,9,9,0,0,1,3.89,1.56,9,9,0,0,0,3.84,1.55,2.76,2.76,0,0,0,1.79-.83,3.88,3.88,0,0,0,.87-2.28h1.79a8.39,8.39,0,0,1-1.5,3.75,3.47,3.47,0,0,1-2.83,1.27,8.1,8.1,0,0,1-4.36-1.59,7.67,7.67,0,0,0-3.72-1.58,2.13,2.13,0,0,0-1.82.92A5.55,5.55,0,0,0,1225.11,483.92Z" transform="translate(-54.62 -184.83)"/><path class="cls-1" d="M1311,507.41a20.14,20.14,0,0,1-6,14.63,19.65,19.65,0,0,1-14.58,6.09,19.32,19.32,0,0,1-14.4-6.09,20.26,20.26,0,0,1-5.92-14.63,20.47,20.47,0,0,1,5.89-14.75,19.31,19.31,0,0,1,14.43-6.09,19.65,19.65,0,0,1,14.58,6.09A20.3,20.3,0,0,1,1311,507.41Zm-2.54,0a18.47,18.47,0,0,0-5.19-13.16,17,17,0,0,0-12.82-5.48,16.73,16.73,0,0,0-12.7,5.48,19.3,19.3,0,0,0,0,26.21,16.73,16.73,0,0,0,12.7,5.48,17,17,0,0,0,12.79-5.46A18.22,18.22,0,0,0,1308.46,507.41Z" transform="translate(-54.62 -184.83)"/></svg>